<!DOCTYPE svg PUBLIC "-//W3C//DTD SVG 1.1//EN" "http://www.w3.org/Graphics/SVG/1.1/DTD/svg11.dtd">
<!-- Uploaded to: SVG Repo, www.svgrepo.com, Transformed by: SVG Repo Mixer Tools -->
<svg width="800px" height="800px" viewBox="0 0 32 32" xmlns="http://www.w3.org/2000/svg" fill="#000000">
<g id="SVGRepo_bgCarrier" stroke-width="0"/>
<g id="SVGRepo_tracerCarrier" stroke-linecap="round" stroke-linejoin="round"/>
<g id="SVGRepo_iconCarrier">
<path d="m16 0c8.836556 0 16 7.163444 16 16s-7.163444 16-16 16-16-7.163444-16-16 7.163444-16 16-16zm0 20.5c-.7731986 0-1.4.6268014-1.4 1.4s.6268014 1.4 1.4 1.4 1.4-.6268014 1.4-1.4-.6268014-1.4-1.4-1.4zm0-11.5c-2.209139 0-4 1.790861-4 4 0 .5522847.4477153 1 1 1s1-.4477153 1-1c0-1.1045695.8954305-2 2-2s2 .8954305 2 2-.8954305 2-2 2c-.5522847 0-1 .4477153-1 1v2c0 .5522847.4477153 1 1 1s1-.4477153 1-1l.0007613-1.1262135c1.7248409-.4443075 2.9992387-2.0102213 2.9992387-3.8737865 0-2.209139-1.790861-4-4-4z" fill="#f08000" fill-rule="evenodd"/>
</g>
</svg>