<svg width="33" height="31" viewBox="0 0 33 31" fill="none" xmlns="http://www.w3.org/2000/svg">
<path d="M28.67 0.910034H4.66998C3.60912 0.910034 2.5917 1.33146 1.84155 2.0816C1.09141 2.83175 0.669983 3.84917 0.669983 4.91003V19.91C0.669983 20.9709 1.09141 21.9883 1.84155 22.7385C2.5917 23.4886 3.60912 23.91 4.66998 23.91H7.66998V29.91C7.66951 30.1013 7.7239 30.2887 7.82671 30.45C7.92951 30.6113 8.0764 30.7397 8.24998 30.82C8.38238 30.8784 8.52531 30.909 8.66998 30.91C8.91306 30.9097 9.14768 30.8208 9.32999 30.66L17.04 23.91H28.67C29.7308 23.91 30.7483 23.4886 31.4984 22.7385C32.2486 21.9883 32.67 20.9709 32.67 19.91V4.91003C32.67 3.84917 32.2486 2.83175 31.4984 2.0816C30.7483 1.33146 29.7308 0.910034 28.67 0.910034ZM30.67 19.91C30.67 20.4405 30.4593 20.9492 30.0842 21.3242C29.7091 21.6993 29.2004 21.91 28.67 21.91H16.67C16.4269 21.9104 16.1923 21.9993 16.01 22.16L9.66998 27.71V22.91C9.66998 22.6448 9.56463 22.3905 9.37709 22.2029C9.18955 22.0154 8.9352 21.91 8.66998 21.91H4.66998C4.13955 21.91 3.63084 21.6993 3.25577 21.3242C2.8807 20.9492 2.66998 20.4405 2.66998 19.91V4.91003C2.66998 4.3796 2.8807 3.87089 3.25577 3.49582C3.63084 3.12075 4.13955 2.91003 4.66998 2.91003H28.67C29.2004 2.91003 29.7091 3.12075 30.0842 3.49582C30.4593 3.87089 30.67 4.3796 30.67 4.91003V19.91Z" fill="white"/>
<path d="M21.67 13.91H12.67C12.4048 13.91 12.1504 14.0154 11.9629 14.2029C11.7753 14.3905 11.67 14.6448 11.67 14.91C11.67 15.1753 11.7753 15.4296 11.9629 15.6171C12.1504 15.8047 12.4048 15.91 12.67 15.91H21.67C21.9352 15.91 22.1896 15.8047 22.3771 15.6171C22.5646 15.4296 22.67 15.1753 22.67 14.91C22.67 14.6448 22.5646 14.3905 22.3771 14.2029C22.1896 14.0154 21.9352 13.91 21.67 13.91Z" fill="white"/>
<path d="M21.67 8.91003H12.67C12.4048 8.91003 12.1504 9.01539 11.9629 9.20293C11.7753 9.39046 11.67 9.64482 11.67 9.91003C11.67 10.1753 11.7753 10.4296 11.9629 10.6171C12.1504 10.8047 12.4048 10.91 12.67 10.91H21.67C21.9352 10.91 22.1896 10.8047 22.3771 10.6171C22.5646 10.4296 22.67 10.1753 22.67 9.91003C22.67 9.64482 22.5646 9.39046 22.3771 9.20293C22.1896 9.01539 21.9352 8.91003 21.67 8.91003Z" fill="white"/>
</svg>
