<!DOCTYPE svg PUBLIC "-//W3C//DTD SVG 1.1//EN" "http://www.w3.org/Graphics/SVG/1.1/DTD/svg11.dtd">
<!-- Uploaded to: SVG Repo, www.svgrepo.com, Transformed by: SVG Repo Mixer Tools -->
<svg fill="#ef320f" height="800px" width="800px" version="1.1" id="Layer_1" xmlns="http://www.w3.org/2000/svg" xmlns:xlink="http://www.w3.org/1999/xlink" viewBox="0 0 512 512" xml:space="preserve" stroke="#ef320f">
<g id="SVGRepo_bgCarrier" stroke-width="0"/>
<g id="SVGRepo_tracerCarrier" stroke-linecap="round" stroke-linejoin="round"/>
<g id="SVGRepo_iconCarrier"> <g> <g> <g> <path d="M490.667,149.333h-21.333c-11.797,0-21.333,9.557-21.333,21.333S457.536,192,469.333,192h21.333 c11.797,0,21.333-9.557,21.333-21.333S502.464,149.333,490.667,149.333z"/> <path d="M64,170.667c0-11.776-9.536-21.333-21.333-21.333H21.333C9.536,149.333,0,158.891,0,170.667S9.536,192,21.333,192h21.333 C54.464,192,64,182.443,64,170.667z"/> <path d="M437.25,79.447c3.84,0,7.723-1.024,11.221-3.2l18.133-11.264c10.027-6.229,13.077-19.371,6.869-29.397 c-6.208-9.984-19.371-13.077-29.376-6.848l-18.112,11.243c-10.027,6.229-13.099,19.392-6.891,29.397 C423.149,75.885,430.125,79.447,437.25,79.447z"/> <path d="M63.52,265.094l-18.133,11.264c-10.005,6.208-13.077,19.371-6.869,29.376c4.053,6.507,11.029,10.069,18.155,10.069 c3.819,0,7.723-1.024,11.221-3.2l18.133-11.264c10.005-6.208,13.077-19.371,6.869-29.376 C86.688,261.958,73.525,258.865,63.52,265.094z"/> <path d="M467.729,274.093l-18.24-11.072c-10.069-6.123-23.189-2.88-29.312,7.189c-6.123,10.091-2.88,23.189,7.168,29.291 l18.261,11.072c3.456,2.112,7.275,3.093,11.029,3.093c7.211,0,14.251-3.648,18.283-10.261 C481.02,293.314,477.798,280.194,467.729,274.093z"/> <path d="M44.271,67.241l18.24,11.072c3.477,2.091,7.275,3.093,11.051,3.093c7.211,0,14.251-3.669,18.261-10.283 c6.123-10.091,2.88-23.189-7.168-29.291L66.394,30.761c-10.069-6.123-23.189-2.901-29.312,7.168 C30.98,48.019,34.202,61.139,44.271,67.241z"/> <path d="M256,0C161.899,0,85.333,76.565,85.333,170.667c0,60.8,33.088,117.333,85.333,147.627v23.04h170.667v-23.04 c52.245-30.293,85.333-86.827,85.333-147.627C426.667,76.565,350.101,0,256,0z M256,128c-23.531,0-42.667,19.136-42.667,42.667 c0,11.776-9.536,21.333-21.333,21.333s-21.333-9.557-21.333-21.333c0-47.061,38.272-85.333,85.333-85.333 c11.797,0,21.333,9.557,21.333,21.333S267.797,128,256,128z"/> <path d="M170.667,448c0,11.776,9.536,21.333,21.333,21.333v21.333c0,11.776,9.536,21.333,21.333,21.333h85.333 c11.797,0,21.333-9.557,21.333-21.333v-21.333c11.797,0,21.333-9.557,21.333-21.333v-64H170.667V448z"/> </g> </g> </g> </g>
</svg>